Results
version=1
nRows=31
nColumns=17
inDegrees=yes
endheader
time	/jointset/r_shoulder/r_shoulder_elev/value	/jointset/r_shoulder/r_shoulder_elev/speed	/jointset/r_elbow/r_elbow_flex/value	/jointset/r_elbow/r_elbow_flex/speed	/forceset/TRIlong/activation	/forceset/TRIlong/fiber_length	/forceset/TRIlat/activation	/forceset/TRIlat/fiber_length	/forceset/TRImed/activation	/forceset/TRImed/fiber_length	/forceset/BIClong/activation	/forceset/BIClong/fiber_length	/forceset/BICshort/activation	/forceset/BICshort/fiber_length	/forceset/BRA/activation	/forceset/BRA/fiber_length
      6.10502255	     -1.59286421	      0.18209951	     22.54969711	      0.19429767	     -0.76057865	      0.14452845	     -0.76057865	      0.07942194	     -0.76057865	      0.07441961	     -0.76057865	      0.14338735	     -0.76057865	      0.14225728	     -0.76057865	      0.08802524
      6.11434996	     -1.59328471	     -0.27181924	     22.55243421	      0.39234460	     -0.76177955	      0.14453038	     -0.76177955	      0.07942262	     -0.76177955	      0.07442033	     -0.76177955	      0.14338653	     -0.76177955	      0.14225635	     -0.76177955	      0.08802466
      6.12367737	     -1.59792001	     -0.72117202	     22.55699115	      0.58314587	     -0.76298046	      0.14453030	     -0.76298046	      0.07942401	     -0.76298046	      0.07442178	     -0.76298046	      0.14338581	     -0.76298046	      0.14225536	     -0.76298046	      0.08802385
      6.13085079	     -1.60432189	     -1.06284491	     22.56168762	      0.72449769	     -0.76390404	      0.14452872	     -0.76390404	      0.07942559	     -0.76390404	      0.07442339	     -0.76390404	      0.14338637	     -0.76390404	      0.14225458	     -0.76390404	      0.08802269
      6.13802422	     -1.61316017	     -1.40065775	     22.56737492	      0.86029117	     -0.76482761	      0.14452596	     -0.76482761	      0.07942758	     -0.76482761	      0.07442541	     -0.76482761	      0.14338712	     -0.76482761	      0.14225378	     -0.76482761	      0.08802153
      6.14729128	     -1.62813596	     -1.82985753	     22.57612386	      1.02571982	     -0.76602075	      0.14452076	     -0.76602075	      0.07943076	     -0.76602075	      0.07442862	     -0.76602075	      0.14338873	     -0.76602075	      0.14225276	     -0.76602075	      0.08801950
      6.15541145	     -1.64449986	     -2.19969364	     22.58501992	      1.16493541	     -0.76706622	      0.14451469	     -0.76706622	      0.07943407	     -0.76706622	      0.07443196	     -0.76706622	      0.14339078	     -0.76706622	      0.14225188	     -0.76706622	      0.08801769
      6.16353162	     -1.66383768	     -2.56172397	     22.59501568	      1.29511703	     -0.76811169	      0.14450722	     -0.76811169	      0.07943784	     -0.76811169	      0.07443576	     -0.76811169	      0.14339346	     -0.76811169	      0.14225104	     -0.76811169	      0.08801526
      6.17165178	     -1.68608618	     -2.91709951	     22.60604615	      1.42158226	     -0.76915716	      0.14449837	     -0.76915716	      0.07944206	     -0.76915716	      0.07444000	     -0.76915716	      0.14339676	     -0.76915716	      0.14225025	     -0.76915716	      0.08801302
      6.17977195	     -1.71118577	     -3.26312889	     22.61807274	      1.53837441	     -0.77020263	      0.14448814	     -0.77020263	      0.07944670	     -0.77020263	      0.07444466	     -0.77020263	      0.14340067	     -0.77020263	      0.14224952	     -0.77020263	      0.08801004
      6.18682054	     -1.73522692	     -3.55741216	     22.62926763	      1.63773060	     -0.77111014	      0.14447817	     -0.77111014	      0.07945106	     -0.77111014	      0.07444903	     -0.77111014	      0.14340457	     -0.77111014	      0.14224895	     -0.77111014	      0.08800773
      6.19386914	     -1.76131601	     -3.84396157	     22.64114115	      1.73037684	     -0.77201765	      0.14446720	     -0.77201765	      0.07945570	     -0.77201765	      0.07445368	     -0.77201765	      0.14340892	     -0.77201765	      0.14224844	     -0.77201765	      0.08800495
      6.20268992	     -1.79676846	     -4.19263639	     22.65689718	      1.84148882	     -0.77315332	      0.14445209	     -0.77315332	      0.07946190	     -0.77315332	      0.07445989	     -0.77315332	      0.14341501	     -0.77315332	      0.14224790	     -0.77315332	      0.08800148
      6.21151069	     -1.83524250	     -4.52838802	     22.67360145	      1.94375408	     -0.77428900	      0.14443549	     -0.77428900	      0.07946850	     -0.77428900	      0.07446649	     -0.77428900	      0.14342179	     -0.77428900	      0.14224748	     -0.77428900	      0.08799749
      6.21859978	     -1.86827543	     -4.78969736	     22.68766452	      2.02343102	     -0.77520172	      0.14442109	     -0.77520172	      0.07947408	     -0.77520172	      0.07447208	     -0.77520172	      0.14342773	     -0.77520172	      0.14224725	     -0.77520172	      0.08799449
      6.22568887	     -1.90312850	     -5.04164599	     22.70227230	      2.09687802	     -0.77611444	      0.14440577	     -0.77611444	      0.07947990	     -0.77611444	      0.07447789	     -0.77611444	      0.14343410	     -0.77611444	      0.14224710	     -0.77611444	      0.08799107
      6.23461515	     -1.94950241	     -5.34653696	     22.72138474	      2.18489835	     -0.77726370	      0.14438523	     -0.77726370	      0.07948753	     -0.77726370	      0.07448552	     -0.77726370	      0.14344272	     -0.77726370	      0.14224705	     -0.77726370	      0.08798682
      6.24354143	     -1.99853139	     -5.63580284	     22.74125278	      2.26435833	     -0.77841296	      0.14436333	     -0.77841296	      0.07949549	     -0.77841296	      0.07449347	     -0.77841296	      0.14345199	     -0.77841296	      0.14224713	     -0.77841296	      0.08798207
      6.25034263	     -2.03758378	     -5.84674877	     22.75685479	      2.32334544	     -0.77928861	      0.14434578	     -0.77928861	      0.07950175	     -0.77928861	      0.07449973	     -0.77928861	      0.14345946	     -0.77928861	      0.14224728	     -0.77928861	      0.08797873
      6.25714383	     -2.07803796	     -6.04785407	     22.77284102	      2.37699604	     -0.78016426	      0.14432750	     -0.78016426	      0.07950818	     -0.78016426	      0.07450615	     -0.78016426	      0.14346728	     -0.78016426	      0.14224753	     -0.78016426	      0.08797500
      6.26649621	     -2.13583605	     -6.30938528	     22.79539921	      2.44652442	     -0.78136838	      0.14430125	     -0.78136838	      0.07951727	     -0.78136838	      0.07451523	     -0.78136838	      0.14347858	     -0.78136838	      0.14224802	     -0.78136838	      0.08796993
      6.27584859	     -2.19599434	     -6.55179782	     22.81857795	      2.50770362	     -0.78257250	      0.14427377	     -0.78257250	      0.07952663	     -0.78257250	      0.07452457	     -0.78257250	      0.14349047	     -0.78257250	      0.14224871	     -0.78257250	      0.08796440
      6.28235450	     -2.23913975	     -6.71015873	     22.83502891	      2.54917433	     -0.78341014	      0.14425398	     -0.78341014	      0.07953329	     -0.78341014	      0.07453122	     -0.78341014	      0.14349907	     -0.78341014	      0.14224930	     -0.78341014	      0.08796086
      6.28886041	     -2.28328330	     -6.85864865	     22.85173462	      2.58621762	     -0.78424777	      0.14423367	     -0.78424777	      0.07954006	     -0.78424777	      0.07453797	     -0.78424777	      0.14350799	     -0.78424777	      0.14224998	     -0.78424777	      0.08795698
      6.29902213	     -2.35408230	     -7.07202296	     22.87829173	      2.63984270	     -0.78555610	      0.14420096	     -0.78555610	      0.07955083	     -0.78555610	      0.07454872	     -0.78555610	      0.14352247	     -0.78555610	      0.14225123	     -0.78555610	      0.08795097
      6.30754829	     -2.41507481	     -7.23207347	     22.90096513	      2.67716182	     -0.78665384	      0.14417268	     -0.78665384	      0.07956004	     -0.78665384	      0.07455790	     -0.78665384	      0.14353488	     -0.78665384	      0.14225245	     -0.78665384	      0.08794564
      6.31607444	     -2.47736059	     -7.37600550	     22.92393837	      2.71211531	     -0.78775158	      0.14414371	     -0.78775158	      0.07956938	     -0.78775158	      0.07456723	     -0.78775158	      0.14354765	     -0.78775158	      0.14225383	     -0.78775158	      0.08794061
      6.32302616	     -2.52900398	     -7.47969076	     22.94287244	      2.73431396	     -0.78864661	      0.14411962	     -0.78864661	      0.07957709	     -0.78864661	      0.07457491	     -0.78864661	      0.14355828	     -0.78864661	      0.14225506	     -0.78864661	      0.08793606
      6.32997788	     -2.58132977	     -7.57248156	     22.96195490	      2.75529749	     -0.78954165	      0.14409516	     -0.78954165	      0.07958488	     -0.78954165	      0.07458267	     -0.78954165	      0.14356911	     -0.78954165	      0.14225639	     -0.78954165	      0.08793178
      6.33899674	     -2.65010280	     -7.67496438	     22.98690600	      2.77635974	     -0.79070283	      0.14406294	     -0.79070283	      0.07959506	     -0.79070283	      0.07459283	     -0.79070283	      0.14358340	     -0.79070283	      0.14225825	     -0.79070283	      0.08792597
      6.34801561	     -2.71971108	     -7.75829437	     23.01202392	      2.79409470	     -0.79186401	      0.14403026	     -0.79186401	      0.07960533	     -0.79186401	      0.07460306	     -0.79186401	      0.14359792	     -0.79186401	      0.14226027	     -0.79186401	      0.08792042
